<svg xmlns="http://www.w3.org/2000/svg" xml:space="preserve" width="655.359" height="655.359" style="shape-rendering:geometricPrecision;text-rendering:geometricPrecision;image-rendering:optimizeQuality;fill-rule:evenodd;clip-rule:evenodd" viewBox="0 0 6.827 6.827"><defs><style>.fil0{fill:none}</style></defs><g id="Layer_x0020_1"><g id="_491470544"><path id="_491470952" class="fil0" d="M0 0h6.827v6.827H0z"/><path id="_491470592" class="fil0" d="M.853.853h5.12v5.12H.853z"/></g><g id="_491470256"><path id="_491470784" d="M3.413 1.26c-.68-.462-1.681.015-1.598 1.083-1.457.343-1.14 2.304.157 2.304h1.441V1.26z" style="fill:#00b0ff"/><path id="_491470880" d="M4.853 4.647c.617 0 1.12-.519 1.12-1.156 0-.597-.41-1.039-.965-1.145-.261-.481-.645-.655-1.17-.568a1.244 1.244 0 0 0-.421-.515l-.004-.003v3.387h1.44z" style="fill:#4fc3f7"/><path id="_491471144" style="fill:#01579b;fill-rule:nonzero" d="m1.667 4.92.822.823.822-.822-.15-.151-.565.564V3.138h-.214v2.196l-.564-.564z"/></g></g></svg>