<svg width="48" height="48" viewBox="0 0 48 48" fill="none" xmlns="http://www.w3.org/2000/svg">
<path d="M41.4142 10.5857L26.8284 25.1714C25.2663 26.7335 22.7337 26.7335 21.1716 25.1714L6.58579 10.5857C6.22386 10.9476 6 11.4476 6 11.9999V35.9999C6 37.1045 6.89543 37.9999 8 37.9999H40C41.1046 37.9999 42 37.1045 42 35.9999V11.9999C42 11.4476 41.7761 10.9476 41.4142 10.5857Z" fill="#B4D059" fill-opacity="0.2"/>
<path d="M6.58579 10.5858C6.94772 10.2239 7.44772 10 8 10H40C40.5523 10 41.0523 10.2239 41.4142 10.5858M6.58579 10.5858C6.22386 10.9477 6 11.4477 6 12V36C6 37.1046 6.89543 38 8 38H40C41.1046 38 42 37.1046 42 36V12C42 11.4477 41.7761 10.9477 41.4142 10.5858M6.58579 10.5858L21.1716 25.1715C22.7337 26.7336 25.2663 26.7336 26.8284 25.1715L41.4142 10.5858" stroke="#B4D059" stroke-width="2" stroke-linecap="round" stroke-linejoin="round"/>
</svg>
